<svg width="1267" height="387" viewBox="0 0 1267 387" fill="none" xmlns="http://www.w3.org/2000/svg">
<rect width="1267" height="387" fill="white"/>
<g filter="url(#filter0_d_525_15)">
<path d="M843 344L927.147 208H1210L1136.94 344H843Z" fill="white"/>
<path d="M843 344L927.147 208H1210L1136.94 344H843Z" stroke="white" stroke-width="3"/>
</g>
<path d="M960.696 239.925L1225 28L1127.95 227.641L1115.4 255.774L1101.7 285.66L1091.99 298.34L1079.43 307.396L1065.73 313.283L1050.89 316C1033.11 316 943 270.717 943 270.717L948.709 251.698L960.696 239.925Z" fill="url(#paint0_linear_525_15)"/>
<ellipse cx="1016.5" cy="275.5" rx="85.5" ry="48.5" fill="url(#paint1_linear_525_15)"/>
<path d="M133.803 263H52.9833V140.6H76.2033V244.82H130.203L133.803 263ZM208.858 254.36C204.898 258.08 200.038 261.02 194.278 263.18C188.518 265.46 183.298 266.6 178.618 266.6C166.738 266.6 158.278 263.12 153.238 256.16C148.318 249.08 145.858 240.56 145.858 230.6V175.7H169.438V229.52C169.438 235.04 170.758 239.3 173.398 242.3C176.038 245.18 179.878 246.62 184.918 246.62C188.038 246.62 191.338 245.84 194.818 244.28C198.298 242.72 201.478 240.92 204.358 238.88V175.7H227.758V263H215.518L208.858 254.36ZM325.353 185.96C329.073 181.76 333.993 178.46 340.113 176.06C346.353 173.54 351.933 172.28 356.853 172.28C368.733 172.28 377.133 175.76 382.053 182.72C387.093 189.68 389.613 198.2 389.613 208.28V263H366.033V209.36C366.033 203.84 364.713 199.64 362.073 196.76C359.433 193.76 355.593 192.26 350.553 192.26C347.193 192.26 343.653 193.16 339.933 194.96C336.213 196.76 332.853 198.8 329.853 201.08C329.973 202.28 330.093 203.48 330.213 204.68C330.333 205.88 330.393 207.08 330.393 208.28V263H306.813V209.36C306.813 203.84 305.493 199.64 302.853 196.76C300.213 193.76 296.433 192.26 291.513 192.26C288.513 192.26 285.453 192.92 282.333 194.24C279.333 195.44 276.453 197 273.693 198.92V263H250.293V175.7H262.533L268.293 183.62C272.253 180.02 276.993 177.26 282.513 175.34C288.153 173.3 293.193 172.28 297.633 172.28C304.473 172.28 310.173 173.54 314.733 176.06C319.293 178.46 322.833 181.76 325.353 185.96ZM422.657 137C426.377 137 429.497 138.26 432.017 140.78C434.657 143.3 435.977 146.42 435.977 150.14C435.977 153.86 434.657 156.98 432.017 159.5C429.497 162.02 426.377 163.28 422.657 163.28C419.057 163.28 415.997 162.02 413.477 159.5C410.957 156.98 409.697 153.86 409.697 150.14C409.697 146.42 410.957 143.3 413.477 140.78C415.997 138.26 419.057 137 422.657 137ZM434.357 175.7V263H410.957V175.7H434.357ZM476.272 185.06C480.232 181.1 485.152 177.98 491.032 175.7C497.032 173.42 502.372 172.28 507.052 172.28C518.932 172.28 527.332 175.76 532.252 182.72C537.292 189.68 539.812 198.2 539.812 208.28V263H516.412V209.36C516.412 203.84 515.092 199.64 512.452 196.76C509.812 193.76 505.972 192.26 500.932 192.26C497.572 192.26 494.032 193.16 490.312 194.96C486.712 196.64 483.412 198.62 480.412 200.9V263H457.012V175.7H469.252L476.272 185.06ZM578.886 236.9C578.886 239.42 579.906 241.7 581.946 243.74C583.986 245.66 586.686 246.62 590.046 246.62C593.286 246.62 596.526 245.9 599.766 244.46C603.126 243.02 606.306 240.86 609.306 237.98V224.66H591.666C587.586 224.66 584.406 225.92 582.126 228.44C579.966 230.96 578.886 233.78 578.886 236.9ZM590.406 265.16C579.726 265.16 571.806 262.58 566.646 257.42C561.486 252.14 558.906 245.3 558.906 236.9C558.906 227.9 561.966 221 568.086 216.2C574.206 211.4 582.186 209 592.026 209H609.126C609.006 204.56 607.686 201.14 605.166 198.74C602.766 196.22 599.406 194.96 595.086 194.96C591.006 194.96 586.566 195.56 581.766 196.76C576.966 197.84 572.946 199.16 569.706 200.72L563.406 181.28C566.766 179 571.866 177.14 578.706 175.7C585.666 174.14 591.006 173.36 594.726 173.36C605.166 173.36 614.106 176.42 621.546 182.54C628.986 188.54 632.706 196.22 632.706 205.58V263H620.646L614.886 255.62C611.646 258.14 607.806 260.36 603.366 262.28C599.046 264.2 594.726 265.16 590.406 265.16ZM708.238 261.2C706.318 262.76 703.558 264.02 699.958 264.98C696.478 266.06 693.358 266.6 690.598 266.6C679.798 266.6 671.278 263.9 665.038 258.5C658.918 252.98 655.858 245.18 655.858 235.1V193.88H644.158V175.88H655.858V155.18L679.078 151.04V175.88H694.918L702.118 193.88H679.078V230.96C679.078 235.52 680.158 239.3 682.318 242.3C684.478 245.18 687.658 246.62 691.858 246.62C693.418 246.62 694.978 246.44 696.538 246.08C698.098 245.72 699.718 245.12 701.398 244.28L708.238 261.2ZM766.391 265.16C751.271 265.16 739.331 261.02 730.571 252.74C721.931 244.46 717.611 233.36 717.611 219.44C717.611 205.52 721.511 194.36 729.311 185.96C737.231 177.56 747.971 173.36 761.531 173.36C775.211 173.36 785.231 177.92 791.591 187.04C798.071 196.04 801.311 206.72 801.311 219.08V226.28H742.451C743.531 232.04 746.171 236.66 750.371 240.14C754.571 243.5 760.091 245.18 766.931 245.18C770.891 245.18 774.431 244.7 777.551 243.74C780.791 242.66 784.511 241.16 788.711 239.24L795.551 256.16C791.471 259.28 786.491 261.56 780.611 263C774.851 264.44 770.111 265.16 766.391 265.16ZM779.171 210.62C777.971 204.74 775.811 200.42 772.691 197.66C769.571 194.78 765.671 193.34 760.991 193.34C756.191 193.34 752.171 194.84 748.931 197.84C745.691 200.72 743.591 204.98 742.631 210.62H779.171Z" fill="black"/>
<path d="M420.148 118.729C421.049 115.972 424.951 115.972 425.852 118.729L431.059 134.669C431.462 135.903 432.613 136.738 433.911 136.738H450.727C453.637 136.738 454.842 140.465 452.484 142.169L438.907 151.98C437.85 152.744 437.408 154.104 437.813 155.343L443.005 171.238C443.907 173.999 440.75 176.302 438.396 174.601L424.757 164.745C423.708 163.987 422.292 163.987 421.243 164.745L407.604 174.601C405.25 176.302 402.093 173.999 402.995 171.238L408.187 155.343C408.592 154.104 408.15 152.744 407.093 151.98L393.516 142.169C391.158 140.465 392.363 136.738 395.273 136.738H412.089C413.387 136.738 414.538 135.903 414.941 134.669L420.148 118.729Z" fill="#FFE658"/>
<defs>
<filter id="filter0_d_525_15" x="831.305" y="197.5" width="400.203" height="167" filterUnits="userSpaceOnUse" color-interpolation-filters="sRGB">
<feFlood flood-opacity="0" result="BackgroundImageFix"/>
<feColorMatrix in="SourceAlpha" type="matrix" values="0 0 0 0 0 0 0 0 0 0 0 0 0 0 0 0 0 0 127 0" result="hardAlpha"/>
<feOffset dx="5" dy="5"/>
<feGaussianBlur stdDeviation="7"/>
<feComposite in2="hardAlpha" operator="out"/>
<feColorMatrix type="matrix" values="0 0 0 0 0 0 0 0 0 0 0 0 0 0 0 0 0 0 0.3 0"/>
<feBlend mode="normal" in2="BackgroundImageFix" result="effect1_dropShadow_525_15"/>
<feBlend mode="normal" in="SourceGraphic" in2="effect1_dropShadow_525_15" result="shape"/>
</filter>
<linearGradient id="paint0_linear_525_15" x1="1230.14" y1="201.887" x2="966.091" y2="183.445" gradientUnits="userSpaceOnUse">
<stop offset="0.275959" stop-color="#F2DD6E" stop-opacity="0.63"/>
<stop offset="1" stop-color="white" stop-opacity="0"/>
</linearGradient>
<linearGradient id="paint1_linear_525_15" x1="1078.47" y1="300.5" x2="967.186" y2="240.69" gradientUnits="userSpaceOnUse">
<stop stop-color="#FAF3CC"/>
<stop stop-color="#FAF4D0" stop-opacity="0.63"/>
<stop offset="1" stop-color="#FCFCFC" stop-opacity="0.63"/>
</linearGradient>
</defs>
</svg>
