<svg width="480" height="480" viewBox="0 0 480 480" fill="none" xmlns="http://www.w3.org/2000/svg">
<g filter="url(#filter0_d_525_10)">
<path d="M38 387L122.147 251H405L331.937 387H38Z" fill="white"/>
<path d="M38 387L122.147 251H405L331.937 387H38Z" stroke="white" stroke-width="3"/>
</g>
<path d="M155.696 282.925L420 71L322.955 270.641L310.397 298.774L296.696 328.66L286.992 341.34L274.433 350.396L260.733 356.283L245.891 359C228.114 359 138 313.717 138 313.717L143.709 294.698L155.696 282.925Z" fill="url(#paint0_linear_525_10)"/>
<ellipse cx="211.5" cy="318.5" rx="85.5" ry="48.5" fill="url(#paint1_linear_525_10)"/>
<defs>
<filter id="filter0_d_525_10" x="26.3047" y="240.5" width="400.203" height="167" filterUnits="userSpaceOnUse" color-interpolation-filters="sRGB">
<feFlood flood-opacity="0" result="BackgroundImageFix"/>
<feColorMatrix in="SourceAlpha" type="matrix" values="0 0 0 0 0 0 0 0 0 0 0 0 0 0 0 0 0 0 127 0" result="hardAlpha"/>
<feOffset dx="5" dy="5"/>
<feGaussianBlur stdDeviation="7"/>
<feComposite in2="hardAlpha" operator="out"/>
<feColorMatrix type="matrix" values="0 0 0 0 0 0 0 0 0 0 0 0 0 0 0 0 0 0 0.8 0"/>
<feBlend mode="normal" in2="BackgroundImageFix" result="effect1_dropShadow_525_10"/>
<feBlend mode="normal" in="SourceGraphic" in2="effect1_dropShadow_525_10" result="shape"/>
</filter>
<linearGradient id="paint0_linear_525_10" x1="425.138" y1="244.887" x2="161.091" y2="226.445" gradientUnits="userSpaceOnUse">
<stop offset="0.275959" stop-color="#F2DD6E" stop-opacity="0.63"/>
<stop offset="1" stop-color="white" stop-opacity="0"/>
</linearGradient>
<linearGradient id="paint1_linear_525_10" x1="273.473" y1="343.5" x2="162.186" y2="283.69" gradientUnits="userSpaceOnUse">
<stop stop-color="#FAF3CC"/>
<stop stop-color="#FAF4D0" stop-opacity="0.63"/>
<stop offset="1" stop-color="#FCFCFC" stop-opacity="0.63"/>
</linearGradient>
</defs>
</svg>
