<svg width="540" height="540" viewBox="0 0 540 540" fill="none" xmlns="http://www.w3.org/2000/svg">
<g clip-path="url(#clip0_530_2)">
<rect width="540" height="540" fill="white"/>
<g filter="url(#filter0_d_530_2)">
<path d="M0 485.611L108.967 309.496H475.252L380.638 485.611H0Z" fill="white"/>
<path d="M0 485.611L108.967 309.496H475.252L380.638 485.611H0Z" stroke="white" stroke-width="3"/>
</g>
<path d="M152.408 350.837L494.672 76.4023L369.002 334.93L352.74 371.361L334.998 410.063L328.917 418.92L322.431 426.482L306.168 438.21L288.427 445.834L269.207 449.352C246.187 449.352 129.492 390.712 129.492 390.712L136.884 366.083L152.408 350.837Z" fill="url(#paint0_linear_530_2)"/>
<ellipse cx="222.079" cy="396.907" rx="110.719" ry="62.8058" fill="url(#paint1_linear_530_2)"/>
<path d="M496.662 5.85409C497.26 4.01147 499.867 4.01148 500.466 5.8541L507.418 27.2516C507.686 28.0756 508.454 28.6335 509.321 28.6335H531.819C533.757 28.6335 534.562 31.1128 532.995 32.2516L514.793 45.4759C514.092 45.9852 513.799 46.888 514.066 47.712L521.019 69.1095C521.618 70.9521 519.509 72.4844 517.941 71.3456L499.739 58.1212C499.038 57.6119 498.089 57.6119 497.388 58.1212L479.186 71.3456C477.619 72.4844 475.51 70.9521 476.109 69.1095L483.061 47.712C483.329 46.888 483.036 45.9852 482.335 45.4759L464.133 32.2516C462.566 31.1128 463.371 28.6335 465.309 28.6335H487.807C488.674 28.6335 489.442 28.0756 489.709 27.2516L496.662 5.85409Z" fill="#FFE658"/>
</g>
<defs>
<filter id="filter0_d_530_2" x="-11.6953" y="298.996" width="508.453" height="207.115" filterUnits="userSpaceOnUse" color-interpolation-filters="sRGB">
<feFlood flood-opacity="0" result="BackgroundImageFix"/>
<feColorMatrix in="SourceAlpha" type="matrix" values="0 0 0 0 0 0 0 0 0 0 0 0 0 0 0 0 0 0 127 0" result="hardAlpha"/>
<feOffset dx="5" dy="5"/>
<feGaussianBlur stdDeviation="7"/>
<feComposite in2="hardAlpha" operator="out"/>
<feColorMatrix type="matrix" values="0 0 0 0 0 0 0 0 0 0 0 0 0 0 0 0 0 0 0.3 0"/>
<feBlend mode="normal" in2="BackgroundImageFix" result="effect1_dropShadow_530_2"/>
<feBlend mode="normal" in="SourceGraphic" in2="effect1_dropShadow_530_2" result="shape"/>
</filter>
<linearGradient id="paint0_linear_530_2" x1="501.325" y1="301.579" x2="159.394" y2="277.699" gradientUnits="userSpaceOnUse">
<stop offset="0.275959" stop-color="#F2DD6E" stop-opacity="0.63"/>
<stop offset="1" stop-color="white" stop-opacity="0"/>
</linearGradient>
<linearGradient id="paint1_linear_530_2" x1="315.316" y1="431.871" x2="158.635" y2="350.496" gradientUnits="userSpaceOnUse">
<stop stop-color="#FAF3CC"/>
<stop stop-color="#FAF4D0" stop-opacity="0.63"/>
<stop offset="1" stop-color="#FCFCFC" stop-opacity="0.63"/>
</linearGradient>
<clipPath id="clip0_530_2">
<rect width="540" height="540" fill="white"/>
</clipPath>
</defs>
</svg>
